<svg xmlns="http://www.w3.org/2000/svg" width="512" height="512" viewBox="0 0 512 512">
  <defs>
    <radialGradient id="buttonFill" cx="37%" cy="28%" r="72%">
      <stop offset="0" stop-color="#F7F3EA"/>
      <stop offset="0.38" stop-color="#D8D2C7"/>
      <stop offset="0.72" stop-color="#AFA99F"/>
      <stop offset="1" stop-color="#878177"/>
    </radialGradient>
    <linearGradient id="rimFill" x1="102" y1="62" x2="404" y2="430" gradientUnits="userSpaceOnUse">
      <stop offset="0" stop-color="#FFFFFF"/>
      <stop offset="0.42" stop-color="#FFF3D8"/>
      <stop offset="1" stop-color="#D9C9A4"/>
    </linearGradient>
    <filter id="toyShadow" x="-15%" y="-10%" width="130%" height="130%" color-interpolation-filters="sRGB">
      <feDropShadow dx="0" dy="18" stdDeviation="12" flood-color="#3A2A1A" flood-opacity="0.28"/>
    </filter>
    <filter id="innerShadow" x="-10%" y="-10%" width="120%" height="120%" color-interpolation-filters="sRGB">
      <feDropShadow dx="0" dy="6" stdDeviation="5" flood-color="#3A2A1A" flood-opacity="0.30"/>
    </filter>
  </defs>

  <g filter="url(#toyShadow)">
    <circle cx="256" cy="240" r="202" fill="url(#rimFill)" stroke="#FFFFFF" stroke-width="20"/>
    <circle cx="256" cy="240" r="170" fill="url(#buttonFill)" stroke="#3A2A1A" stroke-width="10"/>
    <path d="M129 164C153 108 208 79 274 83C337 87 388 125 410 178" fill="none" stroke="#FFFFFF" stroke-width="34" stroke-linecap="round" opacity="0.38"/>
    <path d="M165 339C209 377 291 388 347 350" fill="none" stroke="#3A2A1A" stroke-width="18" stroke-linecap="round" opacity="0.16"/>
  </g>

  <g filter="url(#innerShadow)">
    <path d="M298 134L184 239L298 346" fill="none" stroke="#3A2A1A" stroke-width="72" stroke-linecap="round" stroke-linejoin="round" opacity="0.34"/>
    <path d="M288 126L174 239L288 352" fill="none" stroke="#FFFFFF" stroke-width="62" stroke-linecap="round" stroke-linejoin="round"/>
    <path d="M288 126L174 239L288 352" fill="none" stroke="#F7F3EA" stroke-width="42" stroke-linecap="round" stroke-linejoin="round"/>
  </g>
</svg>
